<svg xmlns="http://www.w3.org/2000/svg" version="1.1" xmlns:xlink="http://www.w3.org/1999/xlink" xmlns:svgjs="http://svgjs.dev/svgjs" viewBox="0 0 1422 800"><defs><linearGradient x1="50%" y1="0%" x2="50%" y2="100%" id="oooscillate-grad"><stop stop-color="hsl(206, 75%, 49%)" stop-opacity="1" offset="0%"></stop><stop stop-color="hsl(336, 90%, 56%)" stop-opacity="1" offset="100%"></stop></linearGradient></defs><g stroke-width="7.5" stroke="url(#oooscillate-grad)" fill="none" stroke-linecap="round"><path d="M 0 748 Q 355.5 110 711 400 Q 1066.5 690 1422 748" stroke-dasharray="2 1" opacity="0.52"></path><path d="M 0 704 Q 355.5 110 711 400 Q 1066.5 690 1422 704" stroke-dasharray="1 1" opacity="0.85"></path><path d="M 0 660 Q 355.5 110 711 400 Q 1066.5 690 1422 660" stroke-dasharray="1 0" opacity="0.69"></path><path d="M 0 616 Q 355.5 110 711 400 Q 1066.5 690 1422 616" stroke-dasharray="0 1" opacity="0.90"></path><path d="M 0 572 Q 355.5 110 711 400 Q 1066.5 690 1422 572" stroke-dasharray="0 1" opacity="0.14"></path><path d="M 0 528 Q 355.5 110 711 400 Q 1066.5 690 1422 528" stroke-dasharray="0 2" opacity="0.96"></path><path d="M 0 484 Q 355.5 110 711 400 Q 1066.5 690 1422 484" stroke-dasharray="1 1" opacity="0.55"></path><path d="M 0 440 Q 355.5 110 711 400 Q 1066.5 690 1422 440" stroke-dasharray="1 0" opacity="0.37"></path><path d="M 0 396 Q 355.5 110 711 400 Q 1066.5 690 1422 396" stroke-dasharray="0 1" opacity="0.48"></path><path d="M 0 352 Q 355.5 110 711 400 Q 1066.5 690 1422 352" stroke-dasharray="2 1" opacity="0.26"></path><path d="M 0 308 Q 355.5 110 711 400 Q 1066.5 690 1422 308" stroke-dasharray="1 1" opacity="0.55"></path><path d="M 0 264 Q 355.5 110 711 400 Q 1066.5 690 1422 264" stroke-dasharray="0 1" opacity="0.27"></path><path d="M 0 220 Q 355.5 110 711 400 Q 1066.5 690 1422 220" stroke-dasharray="2 1" opacity="0.44"></path><path d="M 0 176 Q 355.5 110 711 400 Q 1066.5 690 1422 176" stroke-dasharray="1 1" opacity="0.66"></path><path d="M 0 132 Q 355.5 110 711 400 Q 1066.5 690 1422 132" stroke-dasharray="2 2" opacity="0.29"></path><path d="M 0 88 Q 355.5 110 711 400 Q 1066.5 690 1422 88" stroke-dasharray="0 1" opacity="0.16"></path></g></svg>